<?xml version="1.0" encoding="utf-8"?>
<!-- Generator: Adobe Illustrator 24.1.1, SVG Export Plug-In . SVG Version: 6.00 Build 0)  -->
<svg version="1.1" id="圖層_1" xmlns="http://www.w3.org/2000/svg" xmlns:xlink="http://www.w3.org/1999/xlink" x="0px" y="0px"
	 viewBox="0 0 180 45" style="enable-background:new 0 0 180 45;" xml:space="preserve">
<style type="text/css">
	.st0{fill:#040000;}
	.st1{fill:#D42B18;}
	.st2{fill:none;stroke:#D42B18;stroke-linecap:round;stroke-miterlimit:10;}
	.st3{fill:none;stroke:#DDD942;stroke-linecap:round;stroke-miterlimit:10;}
	.st4{fill:none;stroke:#204A95;stroke-linecap:round;stroke-miterlimit:10;}
</style>
<g>
	<path class="st0" d="M64.5,29.7V14.8h3L71,25.3c0.3,1,0.6,1.7,0.7,2.2c0.2-0.5,0.4-1.3,0.8-2.4l3.6-10.4h2.7v14.9h-1.9V17.2
		l-4.3,12.5h-1.8L66.4,17v12.7H64.5z"/>
	<path class="st0" d="M81.6,33.9l-0.2-1.7c0.4,0.1,0.7,0.2,1,0.2c0.4,0,0.7-0.1,1-0.2c0.2-0.1,0.4-0.3,0.6-0.6
		c0.1-0.2,0.3-0.6,0.6-1.4c0-0.1,0.1-0.3,0.2-0.4l-4.1-10.8h2l2.3,6.3c0.3,0.8,0.6,1.6,0.8,2.5c0.2-0.8,0.5-1.7,0.8-2.5l2.3-6.3h1.8
		l-4.1,11c-0.4,1.2-0.8,2-1,2.5c-0.3,0.6-0.7,1-1.1,1.3c-0.4,0.3-0.9,0.4-1.5,0.4C82.4,34.1,82,34,81.6,33.9z"/>
	<path class="st0" d="M98.2,29.7V14.8h2v6.1h7.8v-6.1h2v14.9h-2v-7h-7.8v7H98.2z"/>
	<path class="st0" d="M112.3,24.3c0-2,0.6-3.5,1.7-4.4c0.9-0.8,2.1-1.2,3.4-1.2c1.5,0,2.7,0.5,3.6,1.5c0.9,1,1.4,2.3,1.4,4
		c0,1.4-0.2,2.5-0.6,3.3c-0.4,0.8-1,1.4-1.8,1.9c-0.8,0.4-1.7,0.7-2.6,0.7c-1.5,0-2.7-0.5-3.7-1.5C112.8,27.5,112.3,26.1,112.3,24.3
		z M114.2,24.3c0,1.4,0.3,2.4,0.9,3.1c0.6,0.7,1.4,1,2.3,1c0.9,0,1.7-0.3,2.3-1c0.6-0.7,0.9-1.7,0.9-3.2c0-1.3-0.3-2.4-0.9-3
		c-0.6-0.7-1.4-1-2.3-1c-0.9,0-1.7,0.3-2.3,1C114.5,21.9,114.2,22.9,114.2,24.3z"/>
	<path class="st0" d="M126.3,29.7h-1.7V14.8h1.8v5.3c0.8-1,1.8-1.5,3-1.5c0.7,0,1.3,0.1,1.9,0.4c0.6,0.3,1.1,0.6,1.5,1.1
		c0.4,0.5,0.7,1.1,0.9,1.8c0.2,0.7,0.3,1.4,0.3,2.2c0,1.9-0.5,3.3-1.4,4.3c-0.9,1-2,1.5-3.3,1.5c-1.3,0-2.3-0.5-3-1.6V29.7z
		 M126.2,24.2c0,1.3,0.2,2.2,0.5,2.8c0.6,0.9,1.4,1.4,2.3,1.4c0.8,0,1.5-0.3,2.1-1c0.6-0.7,0.9-1.7,0.9-3.1c0-1.4-0.3-2.5-0.8-3.1
		c-0.6-0.7-1.2-1-2-1c-0.8,0-1.5,0.3-2.1,1C126.5,21.9,126.2,22.9,126.2,24.2z"/>
	<path class="st0" d="M137.9,29.7h-1.7V14.8h1.8v5.3c0.8-1,1.8-1.5,3-1.5c0.7,0,1.3,0.1,1.9,0.4c0.6,0.3,1.1,0.6,1.5,1.1
		c0.4,0.5,0.7,1.1,0.9,1.8c0.2,0.7,0.3,1.4,0.3,2.2c0,1.9-0.5,3.3-1.4,4.3c-0.9,1-2,1.5-3.3,1.5c-1.3,0-2.3-0.5-3-1.6V29.7z
		 M137.8,24.2c0,1.3,0.2,2.2,0.5,2.8c0.6,0.9,1.4,1.4,2.3,1.4c0.8,0,1.5-0.3,2.1-1c0.6-0.7,0.9-1.7,0.9-3.1c0-1.4-0.3-2.5-0.8-3.1
		c-0.6-0.7-1.2-1-2-1c-0.8,0-1.5,0.3-2.1,1C138.1,21.9,137.8,22.9,137.8,24.2z"/>
	<path class="st0" d="M147.8,16.9v-2.1h1.8v2.1H147.8z M147.8,29.7V18.9h1.8v10.8H147.8z"/>
	<path class="st0" d="M159.8,26.2l1.9,0.2c-0.3,1.1-0.9,2-1.7,2.6c-0.8,0.6-1.8,0.9-3.1,0.9c-1.6,0-2.8-0.5-3.8-1.5
		c-0.9-1-1.4-2.3-1.4-4.1c0-1.8,0.5-3.2,1.4-4.2c0.9-1,2.2-1.5,3.6-1.5c1.4,0,2.6,0.5,3.5,1.5c0.9,1,1.4,2.4,1.4,4.2
		c0,0.1,0,0.3,0,0.5h-8.1c0.1,1.2,0.4,2.1,1,2.7c0.6,0.6,1.4,0.9,2.3,0.9c0.7,0,1.2-0.2,1.7-0.5C159.1,27.6,159.5,27,159.8,26.2z
		 M153.8,23.3h6c-0.1-0.9-0.3-1.6-0.7-2c-0.6-0.7-1.3-1.1-2.3-1.1c-0.8,0-1.5,0.3-2.1,0.8C154.2,21.6,153.8,22.3,153.8,23.3z"/>
	<path class="st0" d="M163.3,26.5l1.8-0.3c0.1,0.7,0.4,1.3,0.9,1.7c0.5,0.4,1.1,0.6,2,0.6c0.8,0,1.5-0.2,1.9-0.5
		c0.4-0.3,0.6-0.7,0.6-1.2c0-0.4-0.2-0.7-0.5-1c-0.3-0.2-0.9-0.4-1.9-0.6c-1.3-0.3-2.3-0.6-2.8-0.9c-0.5-0.2-0.9-0.6-1.2-1
		c-0.3-0.4-0.4-0.9-0.4-1.5c0-0.5,0.1-0.9,0.3-1.3c0.2-0.4,0.5-0.8,0.9-1c0.3-0.2,0.7-0.4,1.2-0.5c0.5-0.1,1-0.2,1.6-0.2
		c0.8,0,1.6,0.1,2.2,0.4c0.6,0.2,1.1,0.6,1.4,1c0.3,0.4,0.5,1,0.6,1.7l-1.8,0.2c-0.1-0.6-0.3-1-0.7-1.3c-0.4-0.3-0.9-0.5-1.7-0.5
		c-0.8,0-1.4,0.1-1.8,0.4c-0.4,0.3-0.5,0.6-0.5,1c0,0.2,0.1,0.5,0.2,0.6c0.1,0.2,0.4,0.4,0.7,0.5c0.2,0.1,0.7,0.2,1.6,0.5
		c1.3,0.3,2.2,0.6,2.7,0.9c0.5,0.2,0.9,0.5,1.2,1c0.3,0.4,0.4,0.9,0.4,1.6c0,0.6-0.2,1.2-0.5,1.7c-0.4,0.5-0.9,1-1.5,1.3
		c-0.7,0.3-1.4,0.4-2.3,0.4c-1.4,0-2.5-0.3-3.2-0.9C163.9,28.5,163.5,27.6,163.3,26.5z"/>
</g>
<g>
	<g>
		<path class="st1" d="M16,14.7l0.5-0.4l3.1,3.9L19,18.7l-2.4-3.1l0.1,2.4l-0.1,0.1l-2.3-0.6l2.4,3.1l-0.5,0.4L13.1,17l0.5-0.4
			l2.5,0.7L16,14.7z"/>
		<path class="st1" d="M19.4,12.9l0.4-0.2l3.9,3.8l-0.6,0.3l-1.2-1.1l-1.8,0.8l0.1,1.6l-0.6,0.3L19.4,12.9z M21.4,15.1L20,13.8
			l0.1,1.9L21.4,15.1z"/>
		<path class="st1" d="M24.7,11.2l0.8-0.2l-1.1,2.7l0.6,2.6l-0.7,0.2l-0.6-2.6L21.5,12l0.8-0.2l1.6,1.4L24.7,11.2z"/>
		<path class="st1" d="M32.3,11l0.6,0l-0.4,5l-0.7,0l0.3-3.9l-1.6,1.8l-0.1,0l-1.3-2l-0.3,3.9l-0.7,0l0.4-5l0.6,0l1.4,2.2L32.3,11z"
			/>
		<path class="st1" d="M36,11.8l0.4,0.1l0.5,5.4l-0.6-0.2l-0.2-1.6L34.2,15l-1,1.2L32.6,16L36,11.8z M36.1,14.9l-0.2-1.9l-1.2,1.5
			L36.1,14.9z"/>
		<path class="st1" d="M41.1,14l0.7,0.4l-2.6,1.3L38,18l-0.6-0.3l1.2-2.4l-0.5-2.9l0.7,0.4l0.3,2.1L41.1,14z"/>
		<path class="st1" d="M47,18.8l0.4,0.4L44,22.8l-0.5-0.5l2.7-2.8l-2.4,0.4l-0.1-0.1l0.3-2.4l-2.7,2.8l-0.5-0.5l3.5-3.6l0.4,0.4
			l-0.3,2.5L47,18.8z"/>
		<path class="st1" d="M49.3,21.9l0.2,0.4l-3.2,4.4L46,26l0.9-1.3l-1-1.7l-1.6,0.3L44,22.8L49.3,21.9z M47.3,24.2l1.2-1.6L46.6,23
			L47.3,24.2z"/>
		<path class="st1" d="M51.6,27l0.3,0.8l-2.8-0.8l-2.5,0.9l-0.2-0.6l2.5-0.9l1.6-2.4l0.3,0.8l-1.2,1.8L51.6,27z"/>
	</g>
	<path class="st2" d="M16.3,20.3c-0.4,2.3-2.1,4.8-4,6.1c-1,0.7-2.5,0.9-3.7,0.6c-2-0.4-3-2.8-1.1-4c1.3-0.8,3.3-0.5,3.6,1.2
		c0.3,1.6-1,2.9-1.5,4.3c-0.7,1.8,0.2,3.7,1.6,4.9c1.8,1.6,4.3,1.9,6.7,2c2.9,0.1,5.8,0.2,8.7,0.2c3.9,0,7.7,0,11.6-0.1
		c1.7-0.1,3.5,0,5.2-0.2c1-0.1,2.1-0.3,3-0.7c2.8-1.4,1.4-4.8,0.4-6.9"/>
	
		<ellipse transform="matrix(2.591542e-02 -0.9997 0.9997 2.591542e-02 -9.8194 43.4405)" class="st1" cx="17.4" cy="26.8" rx="1.2" ry="1.2"/>
	<path class="st2" d="M16.7,20.3c0,0,11.6,0.1,5.9,12.2"/>
	<path class="st3" d="M31.4,27.4c-1.5-0.8-2.5-0.3-3.3,0.9"/>
	<path class="st3" d="M41.9,30.1c-0.2-1.7-1.2-2.2-2.6-2.2"/>
	<path class="st2" d="M40.9,25.6c-0.5-1.6-1.5-2-2.9-1.8"/>
	<path class="st2" d="M29.1,20.7c-1.6-0.7-2.5-0.2-3.3,1"/>
	<path class="st4" d="M35.9,32.2c-0.6-1.6-1.6-1.9-3-1.6"/>
	<path class="st4" d="M35.6,22.3c-1.1-1.3-2.1-1.3-3.4-0.5"/>
</g>
</svg>
