<svg xmlns="http://www.w3.org/2000/svg" viewBox="0 0 166.33 25.23"><defs><style>.a{fill:#040000;}.b{fill:#d42b18;}.c,.d,.e{fill:none;stroke-linecap:round;stroke-miterlimit:10;}.c{stroke:#d42b18;}.d{stroke:#ddd942;}.e{stroke:#204a95;}</style></defs><path class="a" d="M64.49,29.7V14.77h3L71,25.34c.32,1,.56,1.72.71,2.21.17-.55.44-1.34.8-2.4l3.57-10.38h2.66V29.7H76.83V17.2L72.5,29.7H70.71L66.4,17V29.7Z" transform="translate(-5.92 -10.76)"/><path class="a" d="M81.61,33.86l-.2-1.72a4,4,0,0,0,1,.16,2.07,2.07,0,0,0,1-.2,1.64,1.64,0,0,0,.6-.57,8.56,8.56,0,0,0,.56-1.37c0-.1.09-.25.17-.44L80.65,18.88h2l2.25,6.26c.29.8.55,1.63.78,2.51a22.61,22.61,0,0,1,.76-2.46l2.31-6.31h1.83l-4.11,11a23.12,23.12,0,0,1-1,2.45,3.61,3.61,0,0,1-1.12,1.33,2.67,2.67,0,0,1-1.51.42A3.63,3.63,0,0,1,81.61,33.86Z" transform="translate(-5.92 -10.76)"/><path class="a" d="M98.21,29.7V14.77h2V20.9h7.76V14.77h2V29.7h-2v-7h-7.76v7Z" transform="translate(-5.92 -10.76)"/><path class="a" d="M112.29,24.29A5.58,5.58,0,0,1,114,19.84a5,5,0,0,1,3.4-1.2A4.84,4.84,0,0,1,121,20.1a5.57,5.57,0,0,1,1.41,4,7.25,7.25,0,0,1-.62,3.28A4.43,4.43,0,0,1,120,29.28a5.33,5.33,0,0,1-2.61.66,4.83,4.83,0,0,1-3.67-1.46A5.81,5.81,0,0,1,112.29,24.29Zm1.88,0a4.64,4.64,0,0,0,.91,3.11,3,3,0,0,0,4.55,0,4.66,4.66,0,0,0,.91-3.16,4.51,4.51,0,0,0-.91-3,3,3,0,0,0-4.55,0A4.62,4.62,0,0,0,114.17,24.29Z" transform="translate(-5.92 -10.76)"/><path class="a" d="M126.26,29.7h-1.7V14.77h1.83v5.32a3.63,3.63,0,0,1,3-1.45,4.55,4.55,0,0,1,1.89.4,3.81,3.81,0,0,1,1.46,1.13,5.41,5.41,0,0,1,.9,1.76,7.14,7.14,0,0,1,.33,2.2,6.15,6.15,0,0,1-1.38,4.29,4.29,4.29,0,0,1-3.3,1.52,3.44,3.44,0,0,1-3-1.6Zm0-5.49a5.67,5.67,0,0,0,.53,2.81,2.63,2.63,0,0,0,4.42.37,4.77,4.77,0,0,0,.87-3.11,4.84,4.84,0,0,0-.84-3.13,2.56,2.56,0,0,0-2-1,2.61,2.61,0,0,0-2.07,1.05A4.53,4.53,0,0,0,126.24,24.21Z" transform="translate(-5.92 -10.76)"/><path class="a" d="M137.86,29.7h-1.7V14.77H138v5.32a3.63,3.63,0,0,1,3-1.45,4.48,4.48,0,0,1,1.89.4,3.77,3.77,0,0,1,1.47,1.13,5.61,5.61,0,0,1,.9,1.76,7.14,7.14,0,0,1,.33,2.2,6.15,6.15,0,0,1-1.38,4.29,4.29,4.29,0,0,1-3.3,1.52,3.44,3.44,0,0,1-3-1.6Zm0-5.49a5.56,5.56,0,0,0,.53,2.81,2.63,2.63,0,0,0,4.42.37,4.77,4.77,0,0,0,.87-3.11,4.84,4.84,0,0,0-.84-3.13,2.56,2.56,0,0,0-2-1,2.65,2.65,0,0,0-2.08,1.05A4.59,4.59,0,0,0,137.84,24.21Z" transform="translate(-5.92 -10.76)"/><path class="a" d="M147.78,16.88V14.77h1.83v2.11Zm0,12.82V18.88h1.83V29.7Z" transform="translate(-5.92 -10.76)"/><path class="a" d="M159.8,26.21l1.9.24A4.67,4.67,0,0,1,160,29a5.62,5.62,0,0,1-6.86-.54,5.69,5.69,0,0,1-1.39-4.1,6,6,0,0,1,1.4-4.24,4.79,4.79,0,0,1,3.65-1.5,4.61,4.61,0,0,1,3.54,1.47,5.87,5.87,0,0,1,1.38,4.16c0,.11,0,.27,0,.49h-8.07a4.21,4.21,0,0,0,1,2.73,3,3,0,0,0,2.26.94,2.75,2.75,0,0,0,1.72-.53A3.45,3.45,0,0,0,159.8,26.21Zm-6-3h6a3.68,3.68,0,0,0-.69-2.05,2.82,2.82,0,0,0-2.27-1.06,2.92,2.92,0,0,0-2.12.85A3.36,3.36,0,0,0,153.78,23.25Z" transform="translate(-5.92 -10.76)"/><path class="a" d="M163.26,26.47l1.82-.29a2.48,2.48,0,0,0,.85,1.67,2.93,2.93,0,0,0,1.95.58,2.88,2.88,0,0,0,1.87-.51,1.53,1.53,0,0,0,.61-1.21,1.12,1.12,0,0,0-.54-1,7.94,7.94,0,0,0-1.87-.62,16.88,16.88,0,0,1-2.8-.88,2.65,2.65,0,0,1-1.18-1,2.68,2.68,0,0,1-.4-1.45,2.83,2.83,0,0,1,.33-1.34,2.94,2.94,0,0,1,.9-1,3.76,3.76,0,0,1,1.17-.53,5.39,5.39,0,0,1,1.58-.22,6.38,6.38,0,0,1,2.24.36,3.1,3.1,0,0,1,1.42,1,3.94,3.94,0,0,1,.63,1.67l-1.79.25a2,2,0,0,0-.71-1.31,2.6,2.6,0,0,0-1.66-.47,3,3,0,0,0-1.8.42,1.23,1.23,0,0,0-.54,1,1,1,0,0,0,.23.64,1.59,1.59,0,0,0,.7.49c.18.07.72.22,1.62.47a21.67,21.67,0,0,1,2.71.85,2.76,2.76,0,0,1,1.21,1,2.69,2.69,0,0,1,.44,1.57,3,3,0,0,1-.54,1.72,3.47,3.47,0,0,1-1.54,1.26,5.69,5.69,0,0,1-2.28.44,5,5,0,0,1-3.21-.88A4.06,4.06,0,0,1,163.26,26.47Z" transform="translate(-5.92 -10.76)"/><path class="b" d="M16,14.72l.49-.38,3.06,3.93-.53.41-2.38-3.06L16.68,18l-.1.08-2.32-.64,2.39,3.06-.53.41L13.06,17l.5-.39,2.47.67Z" transform="translate(-5.92 -10.76)"/><path class="b" d="M19.37,12.87l.42-.19,3.9,3.78-.62.27-1.15-1.11-1.82.78L20.16,18l-.62.27Zm2,2.27L20,13.78l.08,1.94Z" transform="translate(-5.92 -10.76)"/><path class="b" d="M24.66,11.22l.78-.19-1.11,2.68.61,2.57-.66.16-.61-2.57L21.46,12l.77-.19,1.61,1.38Z" transform="translate(-5.92 -10.76)"/><path class="b" d="M32.3,11l.62,0-.36,5-.66,0,.28-3.86L30.62,14H30.5l-1.3-2-.28,3.87-.66,0,.36-5,.62.05L30.63,13Z" transform="translate(-5.92 -10.76)"/><path class="b" d="M36,11.83l.45.13.51,5.4-.64-.19-.16-1.6L34.24,15l-1,1.25L32.6,16Zm.08,3.06-.18-2-1.19,1.52Z" transform="translate(-5.92 -10.76)"/><path class="b" d="M41.05,14l.72.36L39.2,15.67,38,18l-.61-.3,1.18-2.36-.48-2.87.71.36L39.16,15Z" transform="translate(-5.92 -10.76)"/><path class="b" d="M47,18.76l.45.44L44,22.75l-.48-.47,2.72-2.76-2.37.38-.09-.09.33-2.38-2.72,2.76-.47-.46,3.49-3.56.45.44-.34,2.54Z" transform="translate(-5.92 -10.76)"/><path class="b" d="M49.33,21.86l.24.4-3.22,4.37L46,26.05l.94-1.29-1-1.69-1.56.26L44,22.75Zm-2,2.34,1.16-1.58L46.6,23Z" transform="translate(-5.92 -10.76)"/><path class="b" d="M51.65,27l.28.76-2.8-.79-2.47.91-.23-.64,2.47-.91,1.61-2.42.28.75L49.6,26.38Z" transform="translate(-5.92 -10.76)"/><path class="c" d="M16.27,20.27a10.19,10.19,0,0,1-4,6.06,5.2,5.2,0,0,1-3.74.6c-2-.42-3-2.83-1-4,1.27-.78,3.26-.53,3.58,1.19s-1,2.9-1.53,4.3a4.47,4.47,0,0,0,1.55,4.93c1.79,1.62,4.32,1.9,6.66,2q4.35.14,8.71.18c3.86,0,7.73,0,11.59-.08,1.73-.06,3.47,0,5.2-.17a8.07,8.07,0,0,0,3-.74c2.78-1.42,1.45-4.76.39-6.91" transform="translate(-5.92 -10.76)"/><ellipse class="b" cx="17.38" cy="26.76" rx="1.19" ry="1.18" transform="translate(-15.74 32.68) rotate(-88.51)"/><path class="c" d="M16.71,20.31s11.56.07,5.95,12.21" transform="translate(-5.92 -10.76)"/><path class="d" d="M31.35,27.45c-1.52-.81-2.45-.31-3.31.86" transform="translate(-5.92 -10.76)"/><path class="d" d="M41.94,30.14c-.23-1.71-1.17-2.17-2.63-2.2" transform="translate(-5.92 -10.76)"/><path class="c" d="M40.94,25.57c-.51-1.65-1.51-1.95-2.95-1.75" transform="translate(-5.92 -10.76)"/><path class="c" d="M29.05,20.72c-1.55-.74-2.46-.22-3.28,1" transform="translate(-5.92 -10.76)"/><path class="e" d="M35.91,32.22c-.59-1.62-1.61-1.87-3-1.58" transform="translate(-5.92 -10.76)"/><path class="e" d="M35.62,22.28c-1.08-1.35-2.12-1.27-3.39-.55" transform="translate(-5.92 -10.76)"/></svg>